<mxfile host="app.diagrams.net" modified="2023-06-27T01:20:34.963Z" agent="Mozilla/5.0 (Windows NT 10.0; Win64; x64) AppleWebKit/537.36 (KHTML, like Gecko) Chrome/114.0.0.0 Safari/537.36" etag="BdIiNmItdrgKM8_ZmrW_" version="21.5.0" type="device">
  <diagram name="Page-1" id="2NEL6t4SVE8KoHk-mizd">
    <mxGraphModel dx="989" dy="488" grid="1" gridSize="10" guides="1" tooltips="1" connect="1" arrows="1" fold="1" page="1" pageScale="1" pageWidth="850" pageHeight="1100" math="0" shadow="0">
      <root>
        <mxCell id="0" />
        <mxCell id="1" parent="0" />
        <mxCell id="nfil87yy331nHhgnekXs-24" value="" style="edgeStyle=orthogonalEdgeStyle;rounded=0;orthogonalLoop=1;jettySize=auto;html=1;" edge="1" parent="1" source="nfil87yy331nHhgnekXs-1" target="nfil87yy331nHhgnekXs-9">
          <mxGeometry relative="1" as="geometry" />
        </mxCell>
        <mxCell id="nfil87yy331nHhgnekXs-1" value="Source" style="strokeWidth=2;html=1;shape=mxgraph.flowchart.direct_data;whiteSpace=wrap;fillColor=#ffe6cc;strokeColor=#d79b00;" vertex="1" parent="1">
          <mxGeometry x="170" y="250" width="100" height="60" as="geometry" />
        </mxCell>
        <mxCell id="nfil87yy331nHhgnekXs-2" value="Intermediate" style="strokeWidth=2;html=1;shape=mxgraph.flowchart.direct_data;whiteSpace=wrap;fillColor=#f8cecc;strokeColor=#b85450;" vertex="1" parent="1">
          <mxGeometry x="410" y="250" width="110" height="60" as="geometry" />
        </mxCell>
        <mxCell id="nfil87yy331nHhgnekXs-23" style="edgeStyle=orthogonalEdgeStyle;rounded=0;orthogonalLoop=1;jettySize=auto;html=1;entryX=0.5;entryY=0;entryDx=0;entryDy=0;" edge="1" parent="1" source="nfil87yy331nHhgnekXs-3" target="nfil87yy331nHhgnekXs-17">
          <mxGeometry relative="1" as="geometry" />
        </mxCell>
        <mxCell id="nfil87yy331nHhgnekXs-3" value="Terminal" style="strokeWidth=2;html=1;shape=mxgraph.flowchart.direct_data;whiteSpace=wrap;fillColor=#d5e8d4;strokeColor=#82b366;" vertex="1" parent="1">
          <mxGeometry x="710" y="250" width="100" height="60" as="geometry" />
        </mxCell>
        <mxCell id="nfil87yy331nHhgnekXs-7" value="" style="endArrow=classic;html=1;rounded=0;" edge="1" parent="1">
          <mxGeometry width="50" height="50" relative="1" as="geometry">
            <mxPoint x="270" y="279.66" as="sourcePoint" />
            <mxPoint x="400" y="279.66" as="targetPoint" />
          </mxGeometry>
        </mxCell>
        <mxCell id="nfil87yy331nHhgnekXs-8" value="" style="endArrow=classic;html=1;rounded=0;entryX=0;entryY=0.5;entryDx=0;entryDy=0;entryPerimeter=0;" edge="1" parent="1" target="nfil87yy331nHhgnekXs-3">
          <mxGeometry width="50" height="50" relative="1" as="geometry">
            <mxPoint x="520" y="279.66" as="sourcePoint" />
            <mxPoint x="650" y="279.66" as="targetPoint" />
          </mxGeometry>
        </mxCell>
        <mxCell id="nfil87yy331nHhgnekXs-9" value="Array&lt;br&gt;Collection&lt;br&gt;Generator Function&lt;br&gt;[of()/iterate()&lt;br&gt;/generate()]&lt;br&gt;I/O Channel" style="rounded=0;whiteSpace=wrap;html=1;fillColor=#ffe6cc;strokeColor=#d79b00;" vertex="1" parent="1">
          <mxGeometry x="150" y="350" width="105" height="100" as="geometry" />
        </mxCell>
        <mxCell id="nfil87yy331nHhgnekXs-10" value="" style="strokeWidth=2;html=1;shape=mxgraph.flowchart.annotation_2;align=left;labelPosition=right;pointerEvents=1;rotation=90;" vertex="1" parent="1">
          <mxGeometry x="450" y="220" width="50" height="220" as="geometry" />
        </mxCell>
        <mxCell id="nfil87yy331nHhgnekXs-15" value="" style="edgeStyle=orthogonalEdgeStyle;rounded=0;orthogonalLoop=1;jettySize=auto;html=1;" edge="1" parent="1" source="nfil87yy331nHhgnekXs-11" target="nfil87yy331nHhgnekXs-13">
          <mxGeometry relative="1" as="geometry" />
        </mxCell>
        <mxCell id="nfil87yy331nHhgnekXs-11" value="Stateless" style="text;html=1;align=center;verticalAlign=middle;resizable=0;points=[];autosize=1;strokeColor=none;fillColor=none;" vertex="1" parent="1">
          <mxGeometry x="335" y="348" width="70" height="30" as="geometry" />
        </mxCell>
        <mxCell id="nfil87yy331nHhgnekXs-16" value="" style="edgeStyle=orthogonalEdgeStyle;rounded=0;orthogonalLoop=1;jettySize=auto;html=1;" edge="1" parent="1" source="nfil87yy331nHhgnekXs-12" target="nfil87yy331nHhgnekXs-14">
          <mxGeometry relative="1" as="geometry" />
        </mxCell>
        <mxCell id="nfil87yy331nHhgnekXs-12" value="Statefull" style="text;html=1;align=center;verticalAlign=middle;resizable=0;points=[];autosize=1;strokeColor=none;fillColor=none;" vertex="1" parent="1">
          <mxGeometry x="550" y="348" width="70" height="30" as="geometry" />
        </mxCell>
        <mxCell id="nfil87yy331nHhgnekXs-13" value="filter&lt;br&gt;map&lt;br&gt;flatMap&lt;br&gt;distinct" style="rounded=0;whiteSpace=wrap;html=1;fillColor=#f8cecc;strokeColor=#b85450;" vertex="1" parent="1">
          <mxGeometry x="330" y="420" width="70" height="100" as="geometry" />
        </mxCell>
        <mxCell id="nfil87yy331nHhgnekXs-14" value="&lt;br&gt;sorted&lt;br&gt;&lt;font color=&quot;#ff3333&quot;&gt;limit&lt;/font&gt;&lt;br&gt;skip" style="rounded=0;whiteSpace=wrap;html=1;fillColor=#f8cecc;strokeColor=#b85450;" vertex="1" parent="1">
          <mxGeometry x="550" y="410" width="70" height="100" as="geometry" />
        </mxCell>
        <mxCell id="nfil87yy331nHhgnekXs-19" value="" style="edgeStyle=orthogonalEdgeStyle;rounded=0;orthogonalLoop=1;jettySize=auto;html=1;" edge="1" parent="1" source="nfil87yy331nHhgnekXs-17" target="nfil87yy331nHhgnekXs-18">
          <mxGeometry relative="1" as="geometry" />
        </mxCell>
        <mxCell id="nfil87yy331nHhgnekXs-17" value="reduce&lt;br&gt;collect&lt;br&gt;foreach&lt;br&gt;toarray&lt;br&gt;min/max/count&lt;br&gt;&lt;font color=&quot;#ff3333&quot;&gt;anyMatch/allMatch/noneMatch&lt;br&gt;findFirst/findAny&lt;/font&gt;" style="rounded=0;whiteSpace=wrap;html=1;fillColor=#d5e8d4;strokeColor=#82b366;" vertex="1" parent="1">
          <mxGeometry x="725" y="400" width="185" height="100" as="geometry" />
        </mxCell>
        <mxCell id="nfil87yy331nHhgnekXs-18" value="toList/toSet/toMap/toCollection&lt;br&gt;joining&lt;br&gt;counting&lt;br&gt;mapping&lt;br&gt;minBy/maxBy&lt;br&gt;groupingBy/partioningBy&lt;br&gt;summingDouble/Int/Long&lt;br&gt;summarizingDouble/Int/Long&lt;br style=&quot;border-color: var(--border-color);&quot;&gt;averagingDouble/Int/Long&lt;br&gt;&lt;div style=&quot;&quot;&gt;&lt;/div&gt;" style="whiteSpace=wrap;html=1;rounded=0;align=center;fillColor=#e1d5e7;strokeColor=#9673a6;" vertex="1" parent="1">
          <mxGeometry x="980" y="370" width="190" height="200" as="geometry" />
        </mxCell>
        <mxCell id="nfil87yy331nHhgnekXs-20" value="Collectors" style="text;html=1;align=center;verticalAlign=middle;resizable=0;points=[];autosize=1;strokeColor=#b85450;fillColor=#f8cecc;" vertex="1" parent="1">
          <mxGeometry x="970" y="340" width="80" height="30" as="geometry" />
        </mxCell>
      </root>
    </mxGraphModel>
  </diagram>
</mxfile>
